<?xml version="1.0" encoding="utf-8"?>
<!-- Generator: Adobe Illustrator 25.1.0, SVG Export Plug-In . SVG Version: 6.00 Build 0)  -->
<svg version="1.1" id="Layer_1" xmlns="http://www.w3.org/2000/svg" xmlns:xlink="http://www.w3.org/1999/xlink" x="0px" y="0px"
	 viewBox="0 0 777.7 644.1" style="enable-background:new 0 0 777.7 644.1;" xml:space="preserve">
<style type="text/css">
	.st0{fill:#39384A;}
	.st1{fill:#FFFFFF;}
	.st2{fill:#E6E6E6;}
	.st3{fill:#3943B7;}
</style>
<g id="computer">
	<path class="st0" d="M8.4,458.9h760.2V18.8c0-6.9-5.6-12.4-12.4-12.4H20.8C14,6.4,8.4,12,8.4,18.8V458.9z"/>
	<rect x="31.9" y="23.6" class="st1" width="713.3" height="404.9"/>
	<path class="st0" d="M7.7,447.1v54.3c0,9.5,7.6,17.1,17.1,17.2c0,0,0.1,0,0.1,0h280.6v107.2h-3.7c-1.2,0-2.2,1-2.3,2.2
		c0,0,0,0.1,0,0.1l0,0v7.4c0,1.2,1,2.2,2.2,2.3c0,0,0.1,0,0.1,0h174.2c1.2,0,2.2-1,2.3-2.2c0,0,0-0.1,0-0.1l0,0V628
		c0-1.2-1-2.2-2.2-2.3c0,0-0.1,0-0.1,0h-3.7V518.5h280.6c9.5,0,17.1-7.6,17.2-17.1c0,0,0-0.1,0-0.1l0,0v-54.3H7.7z"/>
	<path class="st2" d="M641.9,159H304.1c-4.4,0-8-3.6-8-8c0-4.4,3.6-8,8-8c0,0,0,0,0,0h337.8c4.4,0,8,3.6,8,8c0,4.4-3.5,8-7.9,8
		C642,159,641.9,159,641.9,159z"/>
	<path class="st2" d="M528.6,195.3H417.5c-4.4,0-8-3.6-8-8c0-4.4,3.6-8,8-8c0,0,0,0,0,0h111.1c4.4,0,8,3.6,8,8
		C536.6,191.7,533,195.3,528.6,195.3C528.6,195.3,528.6,195.3,528.6,195.3z"/>
	<path class="st2" d="M528.6,268.8H417.5c-4.4,0-8-3.6-8-8c0-4.4,3.6-8,8-8c0,0,0,0,0,0h111.1c4.4,0,8,3.6,8,8
		C536.6,265.2,533,268.8,528.6,268.8C528.6,268.8,528.6,268.8,528.6,268.8z"/>
	<path class="st2" d="M528.6,306.4H417.5c-4.4,0-8-3.6-8-8c0-4.4,3.6-8,8-8h111.1c4.4,0,8,3.6,8,8
		C536.6,302.8,533,306.4,528.6,306.4C528.6,306.4,528.6,306.4,528.6,306.4z"/>
	<path class="st2" d="M590.9,231.5H355.2c-4.4,0-8-3.6-8-8c0-4.4,3.6-8,8-8h235.7c4.4,0,8,3.6,8,8
		C598.9,227.9,595.4,231.5,590.9,231.5z"/>
	<path class="st3" d="M636.3,383.6h-40.4c-7.5,0-13.6-6.1-13.6-13.6c0-7.5,6.1-13.6,13.6-13.6h40.4c7.5,0,13.6,6.1,13.6,13.6
		C649.9,377.5,643.8,383.6,636.3,383.6z"/>
	<circle class="st3" cx="198" cy="214.2" r="70.2"/>
	<circle class="st1" cx="388.2" cy="12.4" r="2.6"/>
</g>
</svg>
