<?xml version="1.0" encoding="utf-8"?>
<!-- Generator: Adobe Illustrator 25.1.0, SVG Export Plug-In . SVG Version: 6.00 Build 0)  -->
<svg version="1.1" id="Layer_1" xmlns="http://www.w3.org/2000/svg" xmlns:xlink="http://www.w3.org/1999/xlink" x="0px" y="0px"
	 viewBox="0 0 323.9 650.7" style="enable-background:new 0 0 323.9 650.7;" xml:space="preserve">
<style type="text/css">
	.st0{fill:#39384A;}
	.st1{fill:#FFFFFF;}
	.st2{fill:#E6E6E6;}
	.st3{fill:#3943B7;}
</style>
<g id="mobile">
	<path class="st0" d="M312,166.7h-2.7V76.4c0-29-23.5-52.5-52.5-52.5H64.4c-29,0-52.5,23.5-52.5,52.5l0,0v497.8
		c0,29,23.5,52.5,52.5,52.5h192.3c29,0,52.5-23.5,52.5-52.5V230.9h2.7V166.7z"/>
	<path class="st1" d="M297.5,72.8v500.2c0,21.6-17.5,39.2-39.1,39.2c0,0-0.1,0-0.1,0H65.6c-21.6,0-39.2-17.5-39.2-39.1
		c0,0,0-0.1,0-0.1V72.8c0-19.5,15.8-35.3,35.3-35.3c0,0,0,0,0,0H89c-2,5.2-1.7,11.1,0.8,16c3.2,5.5,8.9,9,15.3,9.3h112.1
		c6.3-0.3,12.1-3.8,15.3-9.3c2.6-5,2.9-10.8,0.8-16h28.9c19.4-0.1,35.2,15.7,35.3,35.1C297.5,72.7,297.5,72.8,297.5,72.8z"/>
	<rect x="56" y="228.7" class="st2" width="211.2" height="8"/>
	<rect x="56" y="252.9" class="st2" width="211.2" height="8"/>
	<rect x="56" y="277.6" class="st2" width="109.1" height="8"/>
	<rect x="56" y="302.6" class="st2" width="211.2" height="8"/>
	<rect x="56" y="327.6" class="st2" width="211.2" height="8"/>
	<rect x="56" y="352.6" class="st2" width="105.5" height="8"/>
	<rect x="56" y="377.7" class="st2" width="211.2" height="8"/>
	<rect x="56" y="402.7" class="st2" width="211.2" height="8"/>
	<rect x="200.8" y="433.3" class="st3" width="66.7" height="22"/>
	<circle class="st3" cx="162" cy="161" r="40.5"/>
</g>
</svg>
