<?xml version="1.0" encoding="utf-8"?>
<!-- Generator: Adobe Illustrator 25.1.0, SVG Export Plug-In . SVG Version: 6.00 Build 0)  -->
<svg version="1.1" id="Layer_1" xmlns="http://www.w3.org/2000/svg" xmlns:xlink="http://www.w3.org/1999/xlink" x="0px" y="0px"
	 viewBox="0 0 120 60" style="enable-background:new 0 0 120 60;" xml:space="preserve">
<style type="text/css">
	.st0{fill:#F03C2E;}
</style>
<path d="M72,26.3c-1.7,0-3,0.8-3,2.8c0,1.5,0.8,2.6,2.9,2.6c1.7,0,2.9-1,2.9-2.6C74.8,27.2,73.8,26.3,72,26.3z M68.6,40.5
	c-0.4,0.5-0.8,1-0.8,1.6c0,1.2,1.6,1.6,3.7,1.6c1.8,0,4.2-0.1,4.2-1.8c0-1-1.2-1.1-2.7-1.1L68.6,40.5L68.6,40.5z M77.8,26.4
	c0.6,0.7,1.1,1.7,1.1,3.1c0,3.4-2.7,5.4-6.6,5.4c-1,0-1.9-0.1-2.4-0.3l-1,1.6l3,0.2c5.3,0.3,8.5,0.5,8.5,4.6c0,3.6-3.1,5.6-8.5,5.6
	c-5.6,0-7.7-1.4-7.7-3.9c0-1.4,0.6-2.1,1.7-3.2c-1-0.4-1.4-1.2-1.4-2c0-0.7,0.3-1.3,0.9-1.9l1.9-1.9c-1.5-0.7-2.7-2.4-2.7-4.6
	c0-3.6,2.3-6,7.1-6c1.3,0,2.1,0.1,2.8,0.3h6v2.6L77.8,26.4 M86.1,20.7c-1.8,0-2.8-1-2.8-2.8s1-2.7,2.8-2.7c1.8,0,2.8,1,2.8,2.7
	S87.9,20.7,86.1,20.7L86.1,20.7z M82.1,39.3v-2.4l1.6-0.2c0.4-0.1,0.5-0.2,0.5-0.6V27c0-0.3-0.1-0.6-0.4-0.6l-1.7-0.6l0.3-2.5h6.4
	v12.8c0,0.5,0,0.6,0.5,0.6l1.6,0.2v2.4L82.1,39.3 M103.1,38.1c-1.3,0.7-3.3,1.2-5,1.2c-3.7,0-5.1-1.5-5.1-5v-8.1
	c0-0.2,0-0.3-0.2-0.3h-2.2v-2.8c2.7-0.3,3.8-1.7,4.1-5h2.9v4.4c0,0.2,0,0.3,0.2,0.3h4.4V26h-4.6v7.4c0,1.8,0.4,2.5,2.1,2.5
	c0.9,0,1.8-0.2,2.5-0.5L103.1,38.1"/>
<path class="st0" d="M50.7,29.2L32.1,10.7c-1.1-1.1-2.8-1.1-3.9,0l-3.8,3.8l4.9,4.9c1.1-0.4,2.4-0.1,3.3,0.8
	c0.9,0.9,1.2,2.2,0.8,3.4l4.7,4.7c1.1-0.4,2.5-0.1,3.4,0.8c1.3,1.3,1.3,3.3,0,4.6c-0.4,0.4-0.9,0.7-1.5,0.8c-1.1,0.3-2.3,0-3.1-0.8
	c-1-1-1.2-2.4-0.7-3.5l-4.4-4.4v11.5c0.3,0.2,0.6,0.4,0.9,0.6c1.3,1.3,1.3,3.3,0,4.6c-1.3,1.3-3.3,1.3-4.6,0c0,0,0,0,0,0
	c-1.3-1.3-1.3-3.3,0-4.6c0.3-0.3,0.7-0.5,1.1-0.7V25.5c-0.4-0.2-0.8-0.4-1.1-0.7c-0.9-0.9-1.2-2.3-0.7-3.6l-4.8-4.8L9.8,29.2
	c-1.1,1.1-1.1,2.8,0,3.9l18.5,18.5c1.1,1.1,2.8,1.1,3.9,0l18.4-18.4C51.7,32,51.7,30.3,50.7,29.2"/>
</svg>
