<?xml version="1.0" encoding="utf-8"?>
<!-- Generator: Adobe Illustrator 25.1.0, SVG Export Plug-In . SVG Version: 6.00 Build 0)  -->
<svg version="1.1" id="Layer_1" xmlns="http://www.w3.org/2000/svg" xmlns:xlink="http://www.w3.org/1999/xlink" x="0px" y="0px"
	 viewBox="0 0 495.4 647.8" style="enable-background:new 0 0 495.4 647.8;" xml:space="preserve">
<style type="text/css">
	.st0{fill:#39384A;}
	.st1{fill:#FFFFFF;}
	.st2{fill:#E6E6E6;}
	.st3{fill:#3943B7;}
</style>
<g id="Layer_2_1_">
	<g id="Layer_1-2">
		<g id="tablet">
			<path class="st0" d="M471.7,134.9c2.1,0,3.9-1.7,3.9-3.9c0,0,0,0,0,0l0,0V89.5c0-2.1-1.7-3.9-3.8-3.9c0,0,0,0,0,0
				c-0.5,0-0.9,0.1-1.4,0.2v-47c0-7.2-5.8-13-13-13H32.7c-7.2,0-13,5.8-13,13c0,0,0,0,0,0l0,0V609c0,7.2,5.8,13,13,13h424.7
				c7.2,0,13-5.8,13-13V193.1c2,0.7,4.2-0.3,4.9-2.3c0,0,0,0,0,0c0.2-0.4,0.2-0.9,0.2-1.4v-41.6c0-2.1-1.7-3.9-3.8-3.9c0,0,0,0,0,0
				c-0.5,0-0.9,0.1-1.4,0.2v-9.6C470.8,134.8,471.3,134.9,471.7,134.9z"/>
			<path class="st1" d="M431.4,51.2c7.2,0,13,5.8,13,13l0,0v519.5c0,7.2-5.8,13-13,13H58.8c-7.2,0-13-5.8-13-13V64.1
				c0-7.2,5.8-13,12.9-13H431.4"/>
			<circle class="st1" cx="245.1" cy="38.8" r="5.2"/>
			<rect x="80.1" y="194" class="st2" width="319.2" height="12"/>
			<rect x="80.1" y="230.7" class="st2" width="319.2" height="12"/>
			<rect x="80.1" y="267.8" class="st2" width="164.9" height="12"/>
			<rect x="80.1" y="305.6" class="st2" width="319.2" height="12"/>
			<rect x="80.1" y="343.4" class="st2" width="319.2" height="12"/>
			<rect x="80.1" y="381.2" class="st2" width="159.4" height="12"/>
			<rect x="80.1" y="419" class="st2" width="319.2" height="12"/>
			<rect x="80.1" y="456.8" class="st2" width="319.2" height="12"/>
			<rect x="298.9" y="503.2" class="st3" width="100.8" height="33.1"/>
			<circle class="st3" cx="245" cy="128.1" r="46.6"/>
		</g>
	</g>
</g>
</svg>
